<svg xmlns="http://www.w3.org/2000/svg" xmlns:xlink="http://www.w3.org/1999/xlink" width="2350" zoomAndPan="magnify" viewBox="0 0 1762.5 187.499995" height="250" preserveAspectRatio="xMidYMid meet" version="1.0"><defs><g/><clipPath id="cdc1dbb09e"><path d="M 578 0 L 635.917969 0 L 635.917969 58 L 578 58 Z M 578 0 " clip-rule="nonzero"/></clipPath></defs><g fill="#064e3b" fill-opacity="1"><g transform="translate(703.518199, 146.631135)"><g><path d="M 83.25 -26.4375 L 27.046875 -26.4375 L 15.40625 0 L -0.15625 0 L 47.75 -105.765625 L 62.703125 -105.765625 L 110.75 0 L 94.890625 0 Z M 77.96875 -38.53125 L 55.15625 -90.359375 L 32.328125 -38.53125 Z M 77.96875 -38.53125 "/></g></g></g><g fill="#064e3b" fill-opacity="1"><g transform="translate(814.110699, 146.631135)"><g><path d="M 27.65625 -66.625 C 30.164062 -71.257812 33.890625 -74.785156 38.828125 -77.203125 C 43.765625 -79.617188 49.757812 -80.828125 56.8125 -80.828125 L 56.8125 -66.78125 C 56.007812 -66.882812 54.898438 -66.9375 53.484375 -66.9375 C 45.628906 -66.9375 39.457031 -64.59375 34.96875 -59.90625 C 30.488281 -55.21875 28.25 -48.546875 28.25 -39.890625 L 28.25 0 L 13.75 0 L 13.75 -80.078125 L 27.65625 -80.078125 Z M 27.65625 -66.625 "/></g></g></g><g fill="#064e3b" fill-opacity="1"><g transform="translate(876.054584, 146.631135)"><g><path d="M 58.78125 -4.6875 C 56.664062 -2.875 54.046875 -1.488281 50.921875 -0.53125 C 47.796875 0.425781 44.570312 0.90625 41.25 0.90625 C 33.1875 0.90625 26.9375 -1.257812 22.5 -5.59375 C 18.070312 -9.925781 15.859375 -16.117188 15.859375 -24.171875 L 15.859375 -68.140625 L 2.265625 -68.140625 L 2.265625 -80.078125 L 15.859375 -80.078125 L 15.859375 -97.609375 L 30.375 -97.609375 L 30.375 -80.078125 L 53.34375 -80.078125 L 53.34375 -68.140625 L 30.375 -68.140625 L 30.375 -24.78125 C 30.375 -20.445312 31.453125 -17.117188 33.609375 -14.796875 C 35.773438 -12.484375 38.875 -11.328125 42.90625 -11.328125 C 47.34375 -11.328125 51.125 -12.585938 54.25 -15.109375 Z M 58.78125 -4.6875 "/></g></g></g><g fill="#064e3b" fill-opacity="1"><g transform="translate(938.60281, 146.631135)"><g><path d="M 86.125 -39.59375 C 86.125 -38.476562 86.023438 -37.015625 85.828125 -35.203125 L 20.84375 -35.203125 C 21.75 -28.148438 24.847656 -22.484375 30.140625 -18.203125 C 35.429688 -13.921875 42.003906 -11.78125 49.859375 -11.78125 C 59.429688 -11.78125 67.140625 -15.003906 72.984375 -21.453125 L 80.984375 -12.09375 C 77.359375 -7.851562 72.847656 -4.625 67.453125 -2.40625 C 62.066406 -0.195312 56.050781 0.90625 49.40625 0.90625 C 40.945312 0.90625 33.441406 -0.828125 26.890625 -4.296875 C 20.347656 -7.773438 15.285156 -12.632812 11.703125 -18.875 C 8.128906 -25.125 6.34375 -32.179688 6.34375 -40.046875 C 6.34375 -47.796875 8.078125 -54.789062 11.546875 -61.03125 C 15.023438 -67.28125 19.8125 -72.140625 25.90625 -75.609375 C 32 -79.085938 38.875 -80.828125 46.53125 -80.828125 C 54.1875 -80.828125 61.007812 -79.085938 67 -75.609375 C 73 -72.140625 77.6875 -67.28125 81.0625 -61.03125 C 84.4375 -54.789062 86.125 -47.644531 86.125 -39.59375 Z M 46.53125 -68.59375 C 39.582031 -68.59375 33.765625 -66.476562 29.078125 -62.25 C 24.398438 -58.019531 21.65625 -52.476562 20.84375 -45.625 L 72.21875 -45.625 C 71.414062 -52.375 68.671875 -57.890625 63.984375 -62.171875 C 59.304688 -66.453125 53.488281 -68.59375 46.53125 -68.59375 Z M 46.53125 -68.59375 "/></g></g></g><g fill="#064e3b" fill-opacity="1"><g transform="translate(1031.065401, 146.631135)"><g><path d="M 113.921875 -80.828125 C 123.992188 -80.828125 131.976562 -77.90625 137.875 -72.0625 C 143.769531 -66.226562 146.71875 -57.566406 146.71875 -46.078125 L 146.71875 0 L 132.203125 0 L 132.203125 -44.421875 C 132.203125 -52.179688 130.414062 -58.023438 126.84375 -61.953125 C 123.269531 -65.878906 118.15625 -67.84375 111.5 -67.84375 C 104.15625 -67.84375 98.316406 -65.550781 93.984375 -60.96875 C 89.648438 -56.382812 87.484375 -49.8125 87.484375 -41.25 L 87.484375 0 L 72.984375 0 L 72.984375 -44.421875 C 72.984375 -52.179688 71.191406 -58.023438 67.609375 -61.953125 C 64.035156 -65.878906 58.925781 -67.84375 52.28125 -67.84375 C 44.925781 -67.84375 39.082031 -65.550781 34.75 -60.96875 C 30.414062 -56.382812 28.25 -49.8125 28.25 -41.25 L 28.25 0 L 13.75 0 L 13.75 -80.078125 L 27.65625 -80.078125 L 27.65625 -68.140625 C 30.570312 -72.273438 34.394531 -75.421875 39.125 -77.578125 C 43.863281 -79.742188 49.253906 -80.828125 55.296875 -80.828125 C 61.546875 -80.828125 67.085938 -79.566406 71.921875 -77.046875 C 76.753906 -74.535156 80.476562 -70.863281 83.09375 -66.03125 C 86.125 -70.664062 90.332031 -74.289062 95.71875 -76.90625 C 101.101562 -79.519531 107.171875 -80.828125 113.921875 -80.828125 Z M 113.921875 -80.828125 "/></g></g></g><g fill="#064e3b" fill-opacity="1"><g transform="translate(1190.759798, 146.631135)"><g><path d="M 13.75 -80.078125 L 28.25 -80.078125 L 28.25 0 L 13.75 0 Z M 21 -95.484375 C 18.175781 -95.484375 15.832031 -96.390625 13.96875 -98.203125 C 12.101562 -100.023438 11.171875 -102.242188 11.171875 -104.859375 C 11.171875 -107.472656 12.101562 -109.710938 13.96875 -111.578125 C 15.832031 -113.441406 18.175781 -114.375 21 -114.375 C 23.820312 -114.375 26.164062 -113.492188 28.03125 -111.734375 C 29.894531 -109.972656 30.828125 -107.78125 30.828125 -105.15625 C 30.828125 -102.4375 29.894531 -100.144531 28.03125 -98.28125 C 26.164062 -96.414062 23.820312 -95.484375 21 -95.484375 Z M 21 -95.484375 "/></g></g></g><g fill="#064e3b" fill-opacity="1"><g transform="translate(1232.911844, 146.631135)"><g><path d="M 36.71875 0.90625 C 30.164062 0.90625 23.867188 0.0234375 17.828125 -1.734375 C 11.785156 -3.492188 7.050781 -5.738281 3.625 -8.46875 L 9.671875 -19.9375 C 13.191406 -17.425781 17.46875 -15.414062 22.5 -13.90625 C 27.539062 -12.394531 32.628906 -11.640625 37.765625 -11.640625 C 50.460938 -11.640625 56.8125 -15.265625 56.8125 -22.515625 C 56.8125 -24.929688 55.953125 -26.84375 54.234375 -28.25 C 52.523438 -29.664062 50.382812 -30.695312 47.8125 -31.34375 C 45.25 -32 41.597656 -32.734375 36.859375 -33.546875 C 30.421875 -34.546875 25.160156 -35.703125 21.078125 -37.015625 C 16.992188 -38.328125 13.488281 -40.539062 10.5625 -43.65625 C 7.644531 -46.78125 6.1875 -51.164062 6.1875 -56.8125 C 6.1875 -64.0625 9.207031 -69.875 15.25 -74.25 C 21.300781 -78.632812 29.414062 -80.828125 39.59375 -80.828125 C 44.925781 -80.828125 50.257812 -80.171875 55.59375 -78.859375 C 60.9375 -77.554688 65.320312 -75.796875 68.75 -73.578125 L 62.546875 -62.09375 C 56.003906 -66.332031 48.300781 -68.453125 39.4375 -68.453125 C 33.289062 -68.453125 28.601562 -67.441406 25.375 -65.421875 C 22.15625 -63.410156 20.546875 -60.742188 20.546875 -57.421875 C 20.546875 -54.796875 21.453125 -52.726562 23.265625 -51.21875 C 25.078125 -49.707031 27.316406 -48.597656 29.984375 -47.890625 C 32.660156 -47.191406 36.414062 -46.390625 41.25 -45.484375 C 47.695312 -44.367188 52.910156 -43.179688 56.890625 -41.921875 C 60.867188 -40.671875 64.265625 -38.53125 67.078125 -35.5 C 69.898438 -32.476562 71.3125 -28.25 71.3125 -22.8125 C 71.3125 -15.5625 68.210938 -9.796875 62.015625 -5.515625 C 55.828125 -1.234375 47.394531 0.90625 36.71875 0.90625 Z M 36.71875 0.90625 "/></g></g></g><path fill="#064e3b" d="M 498.757812 165.816406 C 498.722656 166.082031 498.738281 166.34375 498.808594 166.601562 C 498.878906 166.863281 498.992188 167.097656 499.15625 167.3125 C 499.316406 167.523438 499.515625 167.699219 499.746094 167.832031 C 499.976562 167.96875 500.226562 168.050781 500.492188 168.089844 C 500.492188 168.089844 612.972656 183.226562 613.34375 183.226562 C 613.871094 183.21875 614.382812 183.128906 614.878906 182.964844 C 615.378906 182.796875 615.839844 182.558594 616.265625 182.25 C 616.691406 181.9375 617.0625 181.574219 617.375 181.152344 C 617.6875 180.726562 617.929688 180.269531 618.101562 179.769531 C 618.269531 179.273438 618.363281 178.761719 618.378906 178.238281 C 618.390625 177.710938 618.328125 177.195312 618.183594 176.6875 C 618.039062 176.183594 617.820312 175.710938 617.53125 175.273438 C 617.242188 174.832031 616.890625 174.449219 616.484375 174.117188 C 609.109375 168.148438 602.828125 161.675781 598.308594 155.390625 C 597.140625 153.769531 596.324219 151.988281 595.863281 150.042969 C 595.402344 148.097656 595.332031 146.136719 595.652344 144.164062 C 598.566406 125.863281 602.75 80.707031 578.734375 56.691406 C 554.714844 32.671875 509.558594 36.855469 491.261719 39.773438 C 489.285156 40.09375 487.328125 40.019531 485.382812 39.5625 C 483.4375 39.101562 481.652344 38.285156 480.03125 37.113281 C 473.75 32.597656 467.273438 26.3125 461.308594 18.941406 C 460.941406 18.472656 460.507812 18.082031 460.003906 17.769531 C 459.503906 17.457031 458.960938 17.238281 458.382812 17.117188 C 457.800781 16.996094 457.21875 16.980469 456.632812 17.066406 C 456.046875 17.148438 455.492188 17.332031 454.96875 17.613281 C 454.472656 17.863281 454.027344 18.183594 453.636719 18.578125 C 453.246094 18.972656 452.929688 19.421875 452.6875 19.921875 C 452.445312 20.421875 452.292969 20.949219 452.230469 21.5 C 452.164062 22.050781 452.191406 22.601562 452.308594 23.144531 C 452.304688 23.226562 452.304688 23.308594 452.3125 23.390625 C 452.3125 23.390625 467.347656 146.054688 467.390625 146.1875 C 467.171875 146.386719 466.957031 146.589844 466.746094 146.800781 L 449.667969 163.875 C 449.355469 164.191406 449.164062 164.570312 449.101562 165.011719 C 449.035156 165.457031 449.109375 165.871094 449.324219 166.265625 C 449.535156 166.660156 449.84375 166.949219 450.25 167.136719 C 450.65625 167.324219 451.074219 167.375 451.511719 167.28125 C 455.796875 166.394531 460.105469 166.234375 464.441406 166.800781 C 465.03125 166.878906 465.59375 167.050781 466.128906 167.3125 C 466.660156 167.578125 467.136719 167.921875 467.558594 168.339844 C 467.980469 168.761719 468.324219 169.238281 468.585938 169.773438 C 468.851562 170.304688 469.023438 170.867188 469.101562 171.457031 C 469.667969 175.792969 469.503906 180.105469 468.617188 184.386719 C 468.546875 184.820312 468.605469 185.238281 468.792969 185.636719 C 468.976562 186.035156 469.257812 186.351562 469.632812 186.578125 C 470.308594 187.058594 471.636719 186.621094 472.023438 186.230469 L 489.101562 169.15625 C 490.691406 167.574219 491.917969 165.746094 492.785156 163.679688 C 493.652344 161.609375 494.09375 159.453125 494.109375 157.210938 L 494.15625 152.03125 C 494.160156 151.554688 494.332031 151.144531 494.671875 150.808594 L 568.019531 77.46875 C 570.269531 80.960938 572.085938 84.671875 573.460938 88.59375 C 577.183594 99.023438 580.171875 116.867188 573.277344 142.636719 C 572.789062 144.445312 572.546875 146.289062 572.542969 148.167969 C 572.542969 150.042969 572.785156 151.886719 573.265625 153.699219 C 573.75 155.511719 574.457031 157.234375 575.390625 158.859375 C 576.324219 160.488281 577.453125 161.964844 578.777344 163.296875 C 584.214844 168.734375 590.308594 173.292969 597.0625 176.976562 L 501.03125 164.082031 C 500.765625 164.046875 500.503906 164.0625 500.242188 164.128906 C 499.984375 164.199219 499.746094 164.3125 499.535156 164.476562 C 499.320312 164.640625 499.148438 164.835938 499.011719 165.070312 C 498.878906 165.300781 498.792969 165.550781 498.757812 165.816406 Z M 458.152344 37.804688 C 461.878906 44.777344 466.539062 51.054688 472.125 56.644531 C 473.449219 57.980469 474.925781 59.117188 476.554688 60.058594 C 478.183594 61 479.90625 61.710938 481.722656 62.195312 C 483.539062 62.679688 485.390625 62.914062 487.269531 62.90625 C 489.152344 62.898438 490.996094 62.640625 492.808594 62.140625 C 518.304688 54.980469 536.183594 58.015625 546.691406 61.820312 C 550.886719 63.3125 554.835938 65.304688 558.53125 67.789062 L 485.09375 141.226562 C 484.753906 141.566406 484.347656 141.738281 483.871094 141.742188 L 478.691406 141.789062 C 476.015625 141.808594 473.488281 142.425781 471.105469 143.636719 Z M 491.816406 147.949219 C 491.277344 148.484375 490.859375 149.105469 490.566406 149.804688 C 490.269531 150.507812 490.121094 151.238281 490.117188 151.996094 L 490.070312 157.175781 C 490.058594 158.890625 489.71875 160.535156 489.058594 162.117188 C 488.394531 163.695312 487.457031 165.089844 486.242188 166.296875 L 473.390625 179.148438 C 473.5625 176.402344 473.46875 173.660156 473.109375 170.929688 C 473.042969 170.417969 472.933594 169.914062 472.78125 169.421875 C 472.628906 168.925781 472.441406 168.449219 472.210938 167.984375 C 471.984375 167.523438 471.71875 167.082031 471.417969 166.664062 C 471.117188 166.242188 470.78125 165.851562 470.417969 165.484375 C 470.054688 165.121094 469.660156 164.789062 469.242188 164.488281 C 468.820312 164.1875 468.382812 163.921875 467.917969 163.691406 C 467.457031 163.460938 466.976562 163.273438 466.484375 163.121094 C 465.988281 162.972656 465.488281 162.859375 464.976562 162.792969 C 462.242188 162.433594 459.503906 162.34375 456.753906 162.511719 L 469.605469 149.660156 C 470.816406 148.445312 472.207031 147.507812 473.789062 146.84375 C 475.367188 146.183594 477.015625 145.847656 478.726562 145.835938 L 483.90625 145.789062 C 484.667969 145.78125 485.398438 145.632812 486.097656 145.339844 C 486.800781 145.042969 487.417969 144.628906 487.953125 144.089844 L 561.792969 70.246094 C 563.234375 71.386719 564.507812 72.6875 565.617188 74.148438 Z M 581.636719 160.4375 C 580.5625 159.355469 579.648438 158.15625 578.894531 156.839844 C 578.136719 155.519531 577.5625 154.125 577.171875 152.652344 C 576.78125 151.183594 576.585938 149.6875 576.589844 148.167969 C 576.589844 146.644531 576.789062 145.152344 577.183594 143.683594 C 584.394531 116.734375 581.15625 97.957031 577.167969 86.949219 C 573 75.433594 567.238281 69.792969 566.46875 69.070312 C 565.738281 68.292969 559.957031 62.378906 548.34375 58.117188 C 537.242188 54.039062 518.40625 50.753906 491.71875 58.25 C 490.25 58.652344 488.757812 58.859375 487.238281 58.863281 C 485.714844 58.871094 484.21875 58.675781 482.75 58.285156 C 481.28125 57.894531 479.886719 57.316406 478.570312 56.554688 C 477.253906 55.789062 476.058594 54.871094 474.988281 53.789062 C 468.71875 47.511719 460.386719 36.980469 456.292969 22.433594 C 456.210938 22.191406 456.21875 21.953125 456.320312 21.714844 C 456.425781 21.480469 456.59375 21.3125 456.832031 21.207031 C 457.054688 21.078125 457.296875 21.039062 457.550781 21.089844 C 457.808594 21.144531 458.011719 21.273438 458.164062 21.484375 C 464.441406 29.242188 471.007812 35.605469 477.671875 40.398438 C 478.691406 41.132812 479.769531 41.761719 480.910156 42.28125 C 482.050781 42.804688 483.230469 43.210938 484.453125 43.5 C 485.671875 43.789062 486.910156 43.957031 488.164062 44 C 489.417969 44.046875 490.664062 43.96875 491.902344 43.765625 C 509.589844 40.949219 553.179688 36.851562 575.878906 59.550781 C 598.578125 82.25 594.480469 125.839844 591.660156 143.527344 C 591.460938 144.765625 591.382812 146.011719 591.429688 147.265625 C 591.472656 148.519531 591.640625 149.753906 591.929688 150.976562 C 592.21875 152.195312 592.625 153.375 593.148438 154.515625 C 593.667969 155.65625 594.296875 156.734375 595.03125 157.753906 C 599.824219 164.417969 606.1875 170.980469 613.945312 177.261719 C 614.109375 177.394531 614.222656 177.566406 614.289062 177.769531 C 614.351562 177.972656 614.359375 178.175781 614.300781 178.382812 C 614.246094 178.589844 614.140625 178.761719 613.984375 178.90625 C 613.824219 179.050781 613.640625 179.136719 613.429688 179.171875 L 612.902344 179.101562 C 598.398438 175 587.898438 166.691406 581.636719 160.4375 Z M 581.636719 160.4375 " fill-opacity="1" fill-rule="nonzero"/><g clip-path="url(#cdc1dbb09e)"><path fill="#064e3b" d="M 635.109375 0.796875 C 634.945312 0.628906 634.753906 0.496094 634.542969 0.394531 C 634.328125 0.296875 634.105469 0.234375 633.875 0.210938 C 633.640625 0.191406 633.410156 0.207031 633.183594 0.265625 C 632.953125 0.324219 632.742188 0.417969 632.550781 0.546875 C 632.289062 0.722656 606.160156 18.144531 581.019531 19.144531 C 580.628906 19.160156 580.273438 19.277344 579.953125 19.496094 C 579.632812 19.714844 579.394531 20.003906 579.238281 20.363281 C 579.085938 20.71875 579.039062 21.089844 579.097656 21.472656 C 579.15625 21.859375 579.3125 22.199219 579.570312 22.492188 C 582.976562 26.289062 586.785156 29.636719 590.988281 32.535156 C 591.429688 32.828125 591.675781 33.238281 591.730469 33.769531 C 591.78125 34.273438 591.625 34.703125 591.265625 35.058594 L 578.789062 47.53125 C 578.59375 47.71875 578.441406 47.9375 578.335938 48.1875 C 578.230469 48.4375 578.175781 48.699219 578.171875 48.96875 C 578.171875 49.242188 578.21875 49.5 578.324219 49.753906 C 578.425781 50.003906 578.574219 50.226562 578.765625 50.417969 C 578.957031 50.609375 579.179688 50.757812 579.429688 50.859375 C 579.679688 50.960938 579.941406 51.011719 580.210938 51.007812 C 580.484375 51.007812 580.742188 50.953125 580.992188 50.84375 C 581.242188 50.738281 581.460938 50.585938 581.648438 50.390625 L 594.125 37.917969 C 594.722656 37.324219 595.164062 36.625 595.449219 35.832031 C 595.734375 35.035156 595.835938 34.21875 595.753906 33.375 C 595.671875 32.523438 595.410156 31.730469 594.972656 30.992188 C 594.53125 30.257812 593.957031 29.652344 593.242188 29.175781 C 590.5 27.292969 587.933594 25.1875 585.550781 22.867188 C 602.445312 21.082031 618.726562 13.234375 627.699219 8.203125 C 622.667969 17.179688 614.820312 33.460938 613.039062 50.355469 C 610.714844 47.972656 608.613281 45.40625 606.726562 42.660156 C 606.253906 41.945312 605.644531 41.371094 604.910156 40.929688 C 604.175781 40.492188 603.378906 40.230469 602.527344 40.148438 C 601.6875 40.066406 600.867188 40.167969 600.074219 40.453125 C 599.277344 40.738281 598.582031 41.179688 597.984375 41.777344 L 585.898438 53.867188 C 585.714844 54.058594 585.570312 54.277344 585.472656 54.523438 C 585.375 54.769531 585.328125 55.023438 585.328125 55.289062 C 585.332031 55.554688 585.382812 55.808594 585.488281 56.054688 C 585.589844 56.300781 585.734375 56.515625 585.921875 56.703125 C 586.109375 56.890625 586.324219 57.035156 586.570312 57.136719 C 586.816406 57.242188 587.070312 57.292969 587.335938 57.296875 C 587.601562 57.296875 587.855469 57.25 588.101562 57.152344 C 588.347656 57.054688 588.566406 56.910156 588.757812 56.726562 L 600.84375 44.640625 C 601.203125 44.277344 601.632812 44.125 602.136719 44.175781 C 602.664062 44.230469 603.078125 44.476562 603.371094 44.917969 C 606.265625 49.121094 609.613281 52.929688 613.414062 56.335938 C 613.707031 56.589844 614.046875 56.746094 614.429688 56.808594 C 614.816406 56.867188 615.1875 56.820312 615.542969 56.664062 C 615.898438 56.507812 616.1875 56.273438 616.40625 55.953125 C 616.625 55.628906 616.742188 55.277344 616.757812 54.886719 C 617.757812 29.742188 635.179688 3.617188 635.355469 3.355469 C 635.484375 3.164062 635.582031 2.949219 635.636719 2.722656 C 635.695312 2.496094 635.714844 2.265625 635.691406 2.03125 C 635.667969 1.796875 635.609375 1.574219 635.507812 1.363281 C 635.410156 1.148438 635.273438 0.960938 635.109375 0.796875 Z M 635.109375 0.796875 " fill-opacity="1" fill-rule="nonzero"/></g></svg>