<svg xmlns="http://www.w3.org/2000/svg" xmlns:xlink="http://www.w3.org/1999/xlink" width="1190" zoomAndPan="magnify" viewBox="0 0 892.5 187.499995" height="250" preserveAspectRatio="xMidYMid meet" version="1.0"><defs><g/></defs><g fill="#064e3b" fill-opacity="1"><g transform="translate(258.9929, 148.526991)"><g><path d="M 86.1875 -27.375 L 28 -27.375 L 15.953125 0 L -0.15625 0 L 49.421875 -109.484375 L 64.90625 -109.484375 L 114.640625 0 L 98.21875 0 Z M 80.703125 -39.890625 L 57.09375 -93.53125 L 33.46875 -39.890625 Z M 80.703125 -39.890625 "/></g></g></g><g fill="#064e3b" fill-opacity="1"><g transform="translate(373.47981, 148.526991)"><g><path d="M 28.625 -68.96875 C 31.226562 -73.769531 35.082031 -77.421875 40.1875 -79.921875 C 45.300781 -82.421875 51.507812 -83.671875 58.8125 -83.671875 L 58.8125 -69.125 C 57.976562 -69.226562 56.832031 -69.28125 55.375 -69.28125 C 47.238281 -69.28125 40.847656 -66.851562 36.203125 -62 C 31.566406 -57.15625 29.25 -50.253906 29.25 -41.296875 L 29.25 0 L 14.234375 0 L 14.234375 -82.890625 L 28.625 -82.890625 Z M 28.625 -68.96875 "/></g></g></g><g fill="#064e3b" fill-opacity="1"><g transform="translate(437.60499, 148.526991)"><g><path d="M 60.84375 -4.84375 C 58.65625 -2.96875 55.941406 -1.535156 52.703125 -0.546875 C 49.472656 0.441406 46.140625 0.9375 42.703125 0.9375 C 34.359375 0.9375 27.890625 -1.300781 23.296875 -5.78125 C 18.710938 -10.269531 16.421875 -16.6875 16.421875 -25.03125 L 16.421875 -70.546875 L 2.34375 -70.546875 L 2.34375 -82.890625 L 16.421875 -82.890625 L 16.421875 -101.03125 L 31.4375 -101.03125 L 31.4375 -82.890625 L 55.21875 -82.890625 L 55.21875 -70.546875 L 31.4375 -70.546875 L 31.4375 -25.65625 C 31.4375 -21.164062 32.554688 -17.722656 34.796875 -15.328125 C 37.035156 -12.929688 40.242188 -11.734375 44.421875 -11.734375 C 49.003906 -11.734375 52.914062 -13.035156 56.15625 -15.640625 Z M 60.84375 -4.84375 "/></g></g></g><g fill="#064e3b" fill-opacity="1"><g transform="translate(502.355792, 148.526991)"><g><path d="M 89.15625 -40.984375 C 89.15625 -39.835938 89.050781 -38.320312 88.84375 -36.4375 L 21.578125 -36.4375 C 22.515625 -29.144531 25.722656 -23.28125 31.203125 -18.84375 C 36.679688 -14.414062 43.484375 -12.203125 51.609375 -12.203125 C 61.515625 -12.203125 69.492188 -15.535156 75.546875 -22.203125 L 83.828125 -12.515625 C 80.078125 -8.128906 75.410156 -4.789062 69.828125 -2.5 C 64.253906 -0.207031 58.023438 0.9375 51.140625 0.9375 C 42.378906 0.9375 34.609375 -0.859375 27.828125 -4.453125 C 21.054688 -8.054688 15.816406 -13.085938 12.109375 -19.546875 C 8.410156 -26.015625 6.5625 -33.316406 6.5625 -41.453125 C 6.5625 -49.472656 8.359375 -56.71875 11.953125 -63.1875 C 15.554688 -69.65625 20.507812 -74.6875 26.8125 -78.28125 C 33.125 -81.875 40.242188 -83.671875 48.171875 -83.671875 C 56.097656 -83.671875 63.160156 -81.875 69.359375 -78.28125 C 75.566406 -74.6875 80.414062 -69.65625 83.90625 -63.1875 C 87.40625 -56.71875 89.15625 -49.316406 89.15625 -40.984375 Z M 48.171875 -71.015625 C 40.972656 -71.015625 34.945312 -68.820312 30.09375 -64.4375 C 25.25 -60.0625 22.410156 -54.328125 21.578125 -47.234375 L 74.765625 -47.234375 C 73.929688 -54.222656 71.085938 -59.929688 66.234375 -64.359375 C 61.390625 -68.796875 55.367188 -71.015625 48.171875 -71.015625 Z M 48.171875 -71.015625 "/></g></g></g><g fill="#064e3b" fill-opacity="1"><g transform="translate(598.074365, 148.526991)"><g><path d="M 117.9375 -83.671875 C 128.363281 -83.671875 136.625 -80.644531 142.71875 -74.59375 C 148.820312 -68.550781 151.875 -59.585938 151.875 -47.703125 L 151.875 0 L 136.859375 0 L 136.859375 -45.984375 C 136.859375 -54.015625 135.003906 -60.0625 131.296875 -64.125 C 127.597656 -68.1875 122.304688 -70.21875 115.421875 -70.21875 C 107.816406 -70.21875 101.769531 -67.847656 97.28125 -63.109375 C 92.800781 -58.367188 90.5625 -51.566406 90.5625 -42.703125 L 90.5625 0 L 75.546875 0 L 75.546875 -45.984375 C 75.546875 -54.015625 73.691406 -60.0625 69.984375 -64.125 C 66.285156 -68.1875 60.992188 -70.21875 54.109375 -70.21875 C 46.503906 -70.21875 40.457031 -67.847656 35.96875 -63.109375 C 31.488281 -58.367188 29.25 -51.566406 29.25 -42.703125 L 29.25 0 L 14.234375 0 L 14.234375 -82.890625 L 28.625 -82.890625 L 28.625 -70.546875 C 31.644531 -74.816406 35.601562 -78.070312 40.5 -80.3125 C 45.40625 -82.550781 50.988281 -83.671875 57.25 -83.671875 C 63.707031 -83.671875 69.4375 -82.367188 74.4375 -79.765625 C 79.445312 -77.160156 83.304688 -73.351562 86.015625 -68.34375 C 89.148438 -73.144531 93.503906 -76.898438 99.078125 -79.609375 C 104.660156 -82.316406 110.945312 -83.671875 117.9375 -83.671875 Z M 117.9375 -83.671875 "/></g></g></g><g fill="#064e3b" fill-opacity="1"><g transform="translate(763.392249, 148.526991)"><g><path d="M 14.234375 -82.890625 L 29.25 -82.890625 L 29.25 0 L 14.234375 0 Z M 21.734375 -98.84375 C 18.816406 -98.84375 16.390625 -99.78125 14.453125 -101.65625 C 12.523438 -103.539062 11.5625 -105.835938 11.5625 -108.546875 C 11.5625 -111.253906 12.523438 -113.570312 14.453125 -115.5 C 16.390625 -117.4375 18.816406 -118.40625 21.734375 -118.40625 C 24.648438 -118.40625 27.070312 -117.488281 29 -115.65625 C 30.9375 -113.832031 31.90625 -111.566406 31.90625 -108.859375 C 31.90625 -106.046875 30.9375 -103.671875 29 -101.734375 C 27.070312 -99.804688 24.648438 -98.84375 21.734375 -98.84375 Z M 21.734375 -98.84375 "/></g></g></g><g fill="#064e3b" fill-opacity="1"><g transform="translate(807.028639, 148.526991)"><g><path d="M 38 0.9375 C 31.226562 0.9375 24.710938 0.0234375 18.453125 -1.796875 C 12.203125 -3.617188 7.300781 -5.941406 3.75 -8.765625 L 10.015625 -20.640625 C 13.660156 -18.035156 18.085938 -15.953125 23.296875 -14.390625 C 28.515625 -12.828125 33.78125 -12.046875 39.09375 -12.046875 C 52.238281 -12.046875 58.8125 -15.796875 58.8125 -23.296875 C 58.8125 -25.804688 57.921875 -27.789062 56.140625 -29.25 C 54.367188 -30.707031 52.15625 -31.773438 49.5 -32.453125 C 46.84375 -33.128906 43.0625 -33.882812 38.15625 -34.71875 C 31.488281 -35.757812 26.039062 -36.957031 21.8125 -38.3125 C 17.59375 -39.675781 13.96875 -41.972656 10.9375 -45.203125 C 7.914062 -48.429688 6.40625 -52.96875 6.40625 -58.8125 C 6.40625 -66.3125 9.535156 -72.328125 15.796875 -76.859375 C 22.054688 -81.398438 30.453125 -83.671875 40.984375 -83.671875 C 46.503906 -83.671875 52.023438 -82.992188 57.546875 -81.640625 C 63.078125 -80.285156 67.617188 -78.460938 71.171875 -76.171875 L 64.75 -64.28125 C 57.96875 -68.664062 49.992188 -70.859375 40.828125 -70.859375 C 34.460938 -70.859375 29.609375 -69.8125 26.265625 -67.71875 C 22.929688 -65.632812 21.265625 -62.875 21.265625 -59.4375 C 21.265625 -56.726562 22.203125 -54.585938 24.078125 -53.015625 C 25.960938 -51.453125 28.285156 -50.304688 31.046875 -49.578125 C 33.804688 -48.847656 37.691406 -48.015625 42.703125 -47.078125 C 49.367188 -45.929688 54.757812 -44.707031 58.875 -43.40625 C 63 -42.101562 66.519531 -39.882812 69.4375 -36.75 C 72.363281 -33.625 73.828125 -29.25 73.828125 -23.625 C 73.828125 -16.113281 70.617188 -10.140625 64.203125 -5.703125 C 57.785156 -1.273438 49.050781 0.9375 38 0.9375 Z M 38 0.9375 "/></g></g></g><path fill="#064e3b" d="M 50.847656 165.863281 C 50.8125 166.128906 50.828125 166.390625 50.898438 166.648438 C 50.964844 166.90625 51.082031 167.144531 51.246094 167.355469 C 51.40625 167.570312 51.605469 167.742188 51.835938 167.878906 C 52.066406 168.011719 52.316406 168.097656 52.582031 168.132812 C 52.582031 168.132812 165.09375 183.277344 165.464844 183.277344 C 165.992188 183.269531 166.503906 183.179688 167 183.015625 C 167.5 182.847656 167.960938 182.609375 168.386719 182.300781 C 168.8125 181.988281 169.183594 181.625 169.496094 181.199219 C 169.808594 180.777344 170.050781 180.316406 170.222656 179.820312 C 170.394531 179.324219 170.484375 178.8125 170.5 178.285156 C 170.515625 177.761719 170.449219 177.242188 170.304688 176.738281 C 170.160156 176.234375 169.941406 175.761719 169.652344 175.320312 C 169.363281 174.882812 169.011719 174.496094 168.605469 174.164062 C 161.230469 168.195312 154.945312 161.71875 150.425781 155.433594 C 149.253906 153.8125 148.441406 152.03125 147.980469 150.082031 C 147.519531 148.136719 147.449219 146.179688 147.765625 144.203125 C 150.683594 125.898438 154.871094 80.726562 130.84375 56.707031 C 106.820312 32.683594 61.652344 36.867188 43.347656 39.785156 C 41.371094 40.101562 39.414062 40.03125 37.46875 39.570312 C 35.519531 39.109375 33.738281 38.292969 32.117188 37.125 C 25.832031 32.605469 19.355469 26.320312 13.386719 18.945312 C 13.019531 18.476562 12.585938 18.089844 12.082031 17.773438 C 11.582031 17.460938 11.039062 17.246094 10.460938 17.125 C 9.878906 17.003906 9.296875 16.984375 8.710938 17.070312 C 8.121094 17.15625 7.570312 17.339844 7.046875 17.621094 C 6.550781 17.867188 6.105469 18.1875 5.714844 18.582031 C 5.320312 18.976562 5.007812 19.425781 4.765625 19.925781 C 4.523438 20.429688 4.371094 20.953125 4.304688 21.507812 C 4.238281 22.058594 4.265625 22.605469 4.382812 23.148438 C 4.382812 23.230469 4.382812 23.3125 4.390625 23.394531 C 4.390625 23.394531 19.425781 146.09375 19.472656 146.226562 C 19.253906 146.425781 19.039062 146.632812 18.824219 146.839844 L 1.746094 163.921875 C 1.429688 164.238281 1.238281 164.617188 1.175781 165.058594 C 1.113281 165.5 1.1875 165.917969 1.398438 166.3125 C 1.613281 166.703125 1.921875 166.996094 2.324219 167.183594 C 2.730469 167.371094 3.152344 167.421875 3.589844 167.328125 C 7.875 166.441406 12.183594 166.277344 16.523438 166.84375 C 17.113281 166.925781 17.675781 167.097656 18.207031 167.359375 C 18.742188 167.625 19.21875 167.96875 19.640625 168.386719 C 20.0625 168.808594 20.402344 169.285156 20.667969 169.820312 C 20.929688 170.351562 21.101562 170.914062 21.183594 171.503906 C 21.746094 175.84375 21.585938 180.152344 20.699219 184.4375 C 20.628906 184.871094 20.6875 185.289062 20.871094 185.6875 C 21.058594 186.089844 21.339844 186.402344 21.714844 186.632812 C 22.390625 187.109375 23.71875 186.671875 24.105469 186.28125 L 41.1875 169.203125 C 42.777344 167.621094 44.003906 165.792969 44.875 163.722656 C 45.742188 161.65625 46.183594 159.5 46.199219 157.253906 L 46.246094 152.074219 C 46.25 151.59375 46.421875 151.1875 46.761719 150.851562 L 120.125 77.488281 C 122.378906 80.984375 124.195312 84.695312 125.574219 88.617188 C 129.292969 99.050781 132.28125 116.898438 125.386719 142.675781 C 124.898438 144.488281 124.65625 146.332031 124.652344 148.207031 C 124.652344 150.085938 124.894531 151.929688 125.375 153.742188 C 125.859375 155.554688 126.566406 157.277344 127.5 158.902344 C 128.4375 160.53125 129.5625 162.011719 130.886719 163.339844 C 136.328125 168.78125 142.425781 173.339844 149.179688 177.023438 L 53.121094 164.125 C 52.855469 164.089844 52.59375 164.105469 52.332031 164.175781 C 52.074219 164.242188 51.835938 164.359375 51.625 164.523438 C 51.410156 164.683594 51.238281 164.882812 51.101562 165.113281 C 50.96875 165.347656 50.882812 165.597656 50.847656 165.863281 Z M 10.230469 37.816406 C 13.957031 44.789062 18.617188 51.070312 24.207031 56.660156 C 25.53125 57.996094 27.011719 59.132812 28.636719 60.074219 C 30.265625 61.015625 31.988281 61.730469 33.808594 62.210938 C 35.625 62.695312 37.476562 62.933594 39.355469 62.921875 C 41.238281 62.914062 43.085938 62.660156 44.898438 62.160156 C 70.398438 54.996094 88.28125 58.03125 98.792969 61.835938 C 102.992188 63.332031 106.941406 65.320312 110.636719 67.808594 L 37.179688 141.265625 C 36.839844 141.605469 36.433594 141.777344 35.953125 141.78125 L 30.773438 141.828125 C 28.101562 141.847656 25.570312 142.464844 23.1875 143.675781 Z M 43.902344 147.992188 C 43.363281 148.527344 42.945312 149.144531 42.652344 149.847656 C 42.359375 150.546875 42.207031 151.277344 42.203125 152.039062 L 42.15625 157.21875 C 42.144531 158.933594 41.808594 160.582031 41.144531 162.160156 C 40.480469 163.738281 39.542969 165.132812 38.328125 166.34375 L 25.472656 179.199219 C 25.644531 176.449219 25.550781 173.707031 25.191406 170.976562 C 25.125 170.464844 25.015625 169.960938 24.863281 169.46875 C 24.710938 168.972656 24.523438 168.496094 24.292969 168.03125 C 24.066406 167.570312 23.800781 167.128906 23.5 166.707031 C 23.199219 166.289062 22.863281 165.898438 22.5 165.53125 C 22.132812 165.167969 21.742188 164.832031 21.324219 164.53125 C 20.902344 164.230469 20.460938 163.964844 20 163.738281 C 19.535156 163.507812 19.058594 163.316406 18.5625 163.167969 C 18.070312 163.015625 17.566406 162.90625 17.054688 162.835938 C 14.324219 162.480469 11.582031 162.386719 8.832031 162.558594 L 21.6875 149.703125 C 22.898438 148.488281 24.289062 147.546875 25.871094 146.886719 C 27.449219 146.222656 29.097656 145.886719 30.808594 145.875 L 35.992188 145.828125 C 36.75 145.824219 37.484375 145.671875 38.183594 145.378906 C 38.886719 145.085938 39.503906 144.667969 40.039062 144.128906 L 113.902344 70.265625 C 115.339844 71.40625 116.613281 72.707031 117.722656 74.167969 Z M 133.75 160.480469 C 132.675781 159.402344 131.761719 158.203125 131.003906 156.882812 C 130.246094 155.5625 129.671875 154.167969 129.28125 152.695312 C 128.890625 151.226562 128.699219 149.730469 128.699219 148.207031 C 128.703125 146.6875 128.898438 145.191406 129.292969 143.722656 C 136.507812 116.765625 133.265625 97.984375 129.28125 86.972656 C 125.109375 75.453125 119.347656 69.8125 118.578125 69.089844 C 117.847656 68.3125 112.0625 62.398438 100.445312 58.132812 C 89.339844 54.054688 70.5 50.769531 43.804688 58.265625 C 42.339844 58.667969 40.84375 58.875 39.324219 58.878906 C 37.800781 58.886719 36.304688 58.695312 34.835938 58.300781 C 33.363281 57.910156 31.96875 57.332031 30.652344 56.570312 C 29.335938 55.804688 28.144531 54.882812 27.070312 53.804688 C 20.800781 47.527344 12.46875 36.992188 8.371094 22.441406 C 8.285156 22.199219 8.296875 21.957031 8.398438 21.722656 C 8.503906 21.488281 8.671875 21.316406 8.910156 21.214844 C 9.132812 21.082031 9.375 21.042969 9.628906 21.097656 C 9.882812 21.148438 10.089844 21.28125 10.242188 21.492188 C 16.523438 29.25 23.089844 35.617188 29.757812 40.410156 C 30.773438 41.144531 31.851562 41.773438 32.992188 42.292969 C 34.136719 42.816406 35.316406 43.222656 36.535156 43.511719 C 37.757812 43.800781 38.996094 43.96875 40.25 44.011719 C 41.503906 44.058594 42.75 43.980469 43.988281 43.78125 C 61.683594 40.960938 105.285156 36.859375 127.992188 59.566406 C 150.695312 82.273438 146.59375 125.875 143.777344 143.566406 C 143.578125 144.804688 143.5 146.050781 143.542969 147.304688 C 143.589844 148.558594 143.757812 149.796875 144.046875 151.015625 C 144.335938 152.238281 144.738281 153.417969 145.261719 154.558594 C 145.785156 155.699219 146.414062 156.777344 147.148438 157.796875 C 151.941406 164.464844 158.304688 171.027344 166.0625 177.308594 C 166.230469 177.445312 166.34375 177.613281 166.410156 177.816406 C 166.472656 178.019531 166.480469 178.226562 166.421875 178.429688 C 166.367188 178.636719 166.261719 178.8125 166.101562 178.957031 C 165.945312 179.097656 165.761719 179.1875 165.550781 179.222656 L 165.023438 179.152344 C 150.515625 175.046875 140.011719 166.738281 133.75 160.480469 Z M 133.75 160.480469 " fill-opacity="1" fill-rule="nonzero"/><path fill="#064e3b" d="M 187.238281 0.796875 C 187.070312 0.628906 186.882812 0.496094 186.667969 0.394531 C 186.457031 0.296875 186.234375 0.234375 186 0.210938 C 185.765625 0.191406 185.535156 0.207031 185.308594 0.265625 C 185.082031 0.324219 184.871094 0.417969 184.675781 0.546875 C 184.414062 0.722656 158.28125 18.148438 133.128906 19.148438 C 132.742188 19.164062 132.386719 19.28125 132.066406 19.5 C 131.742188 19.722656 131.503906 20.011719 131.351562 20.367188 C 131.195312 20.722656 131.148438 21.09375 131.207031 21.480469 C 131.269531 21.863281 131.425781 22.203125 131.679688 22.496094 C 135.089844 26.296875 138.898438 29.648438 143.101562 32.542969 C 143.542969 32.835938 143.792969 33.25 143.84375 33.777344 C 143.894531 34.28125 143.742188 34.714844 143.378906 35.070312 L 130.902344 47.542969 C 130.707031 47.734375 130.554688 47.953125 130.449219 48.203125 C 130.339844 48.449219 130.285156 48.710938 130.285156 48.984375 C 130.28125 49.253906 130.332031 49.515625 130.433594 49.765625 C 130.535156 50.015625 130.683594 50.238281 130.875 50.429688 C 131.066406 50.621094 131.289062 50.769531 131.539062 50.871094 C 131.792969 50.976562 132.054688 51.027344 132.324219 51.023438 C 132.59375 51.019531 132.855469 50.964844 133.105469 50.859375 C 133.355469 50.753906 133.574219 50.601562 133.761719 50.40625 L 146.238281 37.929688 C 146.835938 37.332031 147.28125 36.636719 147.566406 35.839844 C 147.851562 35.042969 147.953125 34.226562 147.871094 33.386719 C 147.789062 32.53125 147.527344 31.738281 147.085938 31 C 146.648438 30.265625 146.070312 29.660156 145.359375 29.183594 C 142.613281 27.300781 140.046875 25.195312 137.664062 22.871094 C 154.5625 21.089844 170.847656 13.238281 179.824219 8.207031 C 174.792969 17.183594 166.941406 33.46875 165.160156 50.371094 C 162.835938 47.984375 160.730469 45.417969 158.847656 42.671875 C 158.371094 41.957031 157.765625 41.382812 157.027344 40.941406 C 156.292969 40.503906 155.5 40.242188 154.644531 40.160156 C 153.804688 40.078125 152.984375 40.179688 152.191406 40.464844 C 151.394531 40.75 150.699219 41.191406 150.101562 41.789062 L 138.011719 53.882812 C 137.828125 54.074219 137.683594 54.292969 137.585938 54.539062 C 137.488281 54.785156 137.441406 55.039062 137.441406 55.304688 C 137.445312 55.570312 137.496094 55.824219 137.601562 56.070312 C 137.703125 56.316406 137.847656 56.53125 138.035156 56.71875 C 138.222656 56.90625 138.4375 57.050781 138.683594 57.152344 C 138.929688 57.257812 139.183594 57.308594 139.449219 57.3125 C 139.714844 57.3125 139.96875 57.265625 140.214844 57.167969 C 140.464844 57.070312 140.679688 56.925781 140.871094 56.742188 L 152.960938 44.652344 C 153.320312 44.292969 153.75 44.136719 154.253906 44.1875 C 154.785156 44.242188 155.195312 44.488281 155.488281 44.929688 C 158.386719 49.136719 161.734375 52.941406 165.535156 56.351562 C 165.828125 56.605469 166.167969 56.761719 166.550781 56.824219 C 166.9375 56.882812 167.308594 56.835938 167.664062 56.679688 C 168.019531 56.523438 168.308594 56.289062 168.527344 55.96875 C 168.75 55.644531 168.867188 55.292969 168.882812 54.902344 C 169.878906 29.75 187.304688 3.617188 187.480469 3.359375 C 187.613281 3.164062 187.707031 2.953125 187.765625 2.722656 C 187.824219 2.496094 187.839844 2.265625 187.820312 2.03125 C 187.796875 1.796875 187.734375 1.574219 187.636719 1.363281 C 187.535156 1.152344 187.402344 0.960938 187.238281 0.796875 Z M 187.238281 0.796875 " fill-opacity="1" fill-rule="nonzero"/></svg>