<svg xmlns="http://www.w3.org/2000/svg" xmlns:xlink="http://www.w3.org/1999/xlink" width="500" zoomAndPan="magnify" viewBox="0 0 375 374.999991" height="500" preserveAspectRatio="xMidYMid meet" version="1.0"><defs><clipPath id="e5c6870814"><path d="M 75 0 L 300 0 C 341.421875 0 375 33.578125 375 75 L 375 300 C 375 341.421875 341.421875 375 300 375 L 75 375 C 33.578125 375 0 341.421875 0 300 L 0 75 C 0 33.578125 33.578125 0 75 0 " clip-rule="nonzero"/></clipPath><clipPath id="880430ab38"><path d="M 56.25 80 L 295 80 L 295 318.75 L 56.25 318.75 Z M 56.25 80 " clip-rule="nonzero"/></clipPath><clipPath id="164c63b41a"><path d="M 237 56.25 L 318.75 56.25 L 318.75 137 L 237 137 Z M 237 56.25 " clip-rule="nonzero"/></clipPath></defs><g clip-path="url(#e5c6870814)"><path fill="#1f5e4d" d="M 0 0 L 374.414062 0 L 374.414062 374.414062 L 0 374.414062 Z M 0 0 " fill-opacity="1" fill-rule="nonzero"/></g><g clip-path="url(#880430ab38)"><path fill="#ffffff" d="M 126.269531 288.945312 C 126.222656 289.320312 126.246094 289.6875 126.339844 290.050781 C 126.4375 290.414062 126.601562 290.746094 126.828125 291.042969 C 127.054688 291.34375 127.332031 291.585938 127.65625 291.773438 C 127.984375 291.964844 128.332031 292.082031 128.703125 292.132812 C 128.703125 292.132812 286.554688 313.382812 287.074219 313.382812 C 287.8125 313.367188 288.53125 313.242188 289.230469 313.007812 C 289.929688 312.773438 290.578125 312.441406 291.175781 312.007812 C 291.769531 311.570312 292.289062 311.058594 292.726562 310.464844 C 293.167969 309.871094 293.507812 309.226562 293.746094 308.527344 C 293.988281 307.832031 294.117188 307.113281 294.136719 306.375 C 294.15625 305.636719 294.066406 304.914062 293.863281 304.203125 C 293.660156 303.496094 293.355469 302.832031 292.949219 302.214844 C 292.542969 301.601562 292.050781 301.058594 291.480469 300.59375 C 281.132812 292.21875 272.316406 283.132812 265.976562 274.316406 C 265.164062 273.191406 264.464844 271.996094 263.886719 270.730469 C 263.308594 269.46875 262.863281 268.160156 262.542969 266.808594 C 262.222656 265.457031 262.035156 264.089844 261.984375 262.699219 C 261.9375 261.3125 262.023438 259.933594 262.246094 258.558594 C 266.335938 232.878906 272.207031 169.507812 238.503906 135.804688 C 204.796875 102.101562 141.429688 107.972656 115.75 112.0625 C 114.378906 112.285156 112.996094 112.371094 111.609375 112.320312 C 110.21875 112.273438 108.851562 112.085938 107.5 111.765625 C 106.148438 111.445312 104.839844 110.996094 103.578125 110.417969 C 102.3125 109.839844 101.117188 109.144531 99.992188 108.332031 C 91.175781 101.992188 82.089844 93.175781 73.714844 82.828125 C 73.460938 82.503906 73.179688 82.203125 72.875 81.929688 C 72.566406 81.652344 72.238281 81.40625 71.886719 81.1875 C 71.539062 80.96875 71.171875 80.785156 70.789062 80.628906 C 70.40625 80.476562 70.011719 80.359375 69.609375 80.273438 C 69.203125 80.1875 68.796875 80.140625 68.382812 80.128906 C 67.972656 80.113281 67.5625 80.136719 67.152344 80.199219 C 66.746094 80.257812 66.34375 80.351562 65.953125 80.480469 C 65.5625 80.609375 65.183594 80.773438 64.820312 80.96875 C 64.121094 81.316406 63.5 81.765625 62.949219 82.320312 C 62.402344 82.875 61.957031 83.503906 61.621094 84.207031 C 61.28125 84.910156 61.066406 85.648438 60.972656 86.421875 C 60.882812 87.199219 60.921875 87.964844 61.085938 88.726562 C 61.082031 88.84375 61.082031 88.957031 61.09375 89.074219 C 61.09375 89.074219 82.191406 261.214844 82.253906 261.398438 C 81.945312 261.679688 81.644531 261.964844 81.347656 262.261719 L 57.382812 286.222656 C 57.167969 286.4375 56.992188 286.683594 56.855469 286.957031 C 56.71875 287.230469 56.628906 287.515625 56.585938 287.820312 C 56.539062 288.121094 56.546875 288.421875 56.597656 288.722656 C 56.652344 289.023438 56.75 289.308594 56.898438 289.578125 C 57.042969 289.84375 57.226562 290.082031 57.449219 290.292969 C 57.671875 290.5 57.921875 290.671875 58.199219 290.800781 C 58.472656 290.929688 58.765625 291.011719 59.066406 291.042969 C 59.371094 291.078125 59.671875 291.066406 59.96875 291.003906 C 65.980469 289.757812 72.027344 289.53125 78.113281 290.324219 C 78.941406 290.4375 79.730469 290.675781 80.480469 291.046875 C 81.226562 291.417969 81.898438 291.898438 82.488281 292.488281 C 83.078125 293.078125 83.558594 293.75 83.929688 294.496094 C 84.300781 295.246094 84.539062 296.035156 84.652344 296.863281 C 85.445312 302.949219 85.21875 308.996094 83.972656 315.007812 C 83.875 315.617188 83.957031 316.203125 84.21875 316.761719 C 84.476562 317.320312 84.871094 317.761719 85.398438 318.082031 C 86.347656 318.753906 88.210938 318.140625 88.753906 317.59375 L 112.71875 293.632812 C 113.820312 292.53125 114.808594 291.335938 115.679688 290.042969 C 116.550781 288.75 117.289062 287.382812 117.890625 285.945312 C 118.492188 284.507812 118.953125 283.027344 119.265625 281.5 C 119.578125 279.972656 119.738281 278.429688 119.75 276.871094 L 119.816406 269.601562 C 119.820312 268.929688 120.058594 268.359375 120.535156 267.882812 L 223.464844 164.964844 C 226.628906 169.867188 229.175781 175.070312 231.105469 180.574219 C 236.328125 195.214844 240.519531 220.25 230.84375 256.414062 C 230.503906 257.679688 230.25 258.964844 230.078125 260.261719 C 229.90625 261.5625 229.820312 262.867188 229.816406 264.179688 C 229.816406 265.488281 229.902344 266.792969 230.070312 268.09375 C 230.238281 269.394531 230.492188 270.675781 230.832031 271.941406 C 231.167969 273.210938 231.585938 274.449219 232.085938 275.660156 C 232.582031 276.871094 233.160156 278.046875 233.8125 279.183594 C 234.464844 280.320312 235.1875 281.410156 235.984375 282.453125 C 236.777344 283.492188 237.636719 284.480469 238.5625 285.410156 C 246.195312 293.039062 254.75 299.4375 264.222656 304.605469 L 129.460938 286.511719 C 129.089844 286.460938 128.71875 286.484375 128.355469 286.578125 C 127.992188 286.675781 127.660156 286.835938 127.359375 287.066406 C 127.0625 287.292969 126.816406 287.570312 126.628906 287.898438 C 126.441406 288.222656 126.320312 288.574219 126.269531 288.945312 Z M 69.289062 109.304688 C 74.519531 119.085938 81.054688 127.898438 88.898438 135.742188 C 89.824219 136.675781 90.804688 137.542969 91.847656 138.34375 C 92.886719 139.144531 93.976562 139.875 95.113281 140.53125 C 96.25 141.191406 97.425781 141.769531 98.640625 142.273438 C 99.855469 142.773438 101.097656 143.191406 102.367188 143.53125 C 103.636719 143.867188 104.921875 144.121094 106.222656 144.285156 C 107.527344 144.453125 108.835938 144.535156 110.148438 144.527344 C 111.464844 144.523438 112.769531 144.429688 114.070312 144.25 C 115.375 144.070312 116.65625 143.804688 117.921875 143.457031 C 153.703125 133.40625 178.789062 137.667969 193.539062 143.003906 C 199.425781 145.101562 204.964844 147.890625 210.152344 151.378906 L 107.09375 254.441406 C 106.621094 254.917969 106.046875 255.15625 105.375 255.160156 L 98.109375 255.226562 C 94.359375 255.257812 90.808594 256.121094 87.464844 257.820312 Z M 116.527344 263.875 C 115.769531 264.625 115.1875 265.492188 114.773438 266.476562 C 114.359375 267.460938 114.152344 268.488281 114.144531 269.554688 L 114.078125 276.820312 C 114.0625 279.226562 113.585938 281.535156 112.65625 283.753906 C 111.726562 285.96875 110.410156 287.925781 108.707031 289.621094 L 90.671875 307.65625 C 90.910156 303.800781 90.78125 299.953125 90.28125 296.121094 C 90.183594 295.402344 90.027344 294.695312 89.816406 294.003906 C 89.605469 293.3125 89.339844 292.640625 89.019531 291.992188 C 88.695312 291.339844 88.324219 290.722656 87.902344 290.132812 C 87.480469 289.542969 87.011719 288.996094 86.5 288.480469 C 85.988281 287.96875 85.4375 287.503906 84.847656 287.078125 C 84.261719 286.65625 83.640625 286.285156 82.992188 285.964844 C 82.34375 285.644531 81.671875 285.375 80.980469 285.164062 C 80.285156 284.953125 79.582031 284.796875 78.863281 284.703125 C 75.027344 284.203125 71.183594 284.070312 67.324219 284.308594 L 85.363281 266.273438 C 87.058594 264.570312 89.011719 263.253906 91.230469 262.324219 C 93.445312 261.394531 95.757812 260.921875 98.160156 260.90625 L 105.429688 260.839844 C 106.496094 260.832031 107.519531 260.621094 108.503906 260.207031 C 109.488281 259.796875 110.355469 259.210938 111.109375 258.457031 L 214.730469 154.832031 C 216.75 156.429688 218.539062 158.253906 220.09375 160.304688 Z M 242.578125 281.394531 C 241.828125 280.640625 241.132812 279.84375 240.488281 278.996094 C 239.84375 278.152344 239.257812 277.269531 238.726562 276.347656 C 238.199219 275.425781 237.730469 274.472656 237.328125 273.488281 C 236.921875 272.507812 236.585938 271.5 236.3125 270.476562 C 236.039062 269.449219 235.832031 268.40625 235.695312 267.351562 C 235.558594 266.300781 235.492188 265.242188 235.492188 264.179688 C 235.496094 263.117188 235.566406 262.058594 235.703125 261.003906 C 235.84375 259.949219 236.050781 258.910156 236.328125 257.882812 C 246.445312 220.066406 241.902344 193.714844 236.308594 178.269531 C 230.457031 162.109375 222.375 154.191406 221.292969 153.179688 C 220.269531 152.089844 212.152344 143.792969 195.855469 137.808594 C 180.277344 132.085938 153.84375 127.476562 116.390625 137.992188 C 115.367188 138.273438 114.328125 138.488281 113.277344 138.632812 C 112.222656 138.777344 111.164062 138.851562 110.101562 138.855469 C 109.039062 138.859375 107.980469 138.792969 106.925781 138.660156 C 105.871094 138.523438 104.832031 138.316406 103.804688 138.042969 C 102.777344 137.769531 101.773438 137.429688 100.792969 137.023438 C 99.808594 136.617188 98.859375 136.148438 97.941406 135.613281 C 97.019531 135.082031 96.140625 134.488281 95.296875 133.839844 C 94.457031 133.191406 93.664062 132.488281 92.914062 131.734375 C 84.117188 122.925781 72.425781 108.144531 66.679688 87.734375 C 66.621094 87.570312 66.597656 87.398438 66.605469 87.226562 C 66.609375 87.050781 66.648438 86.886719 66.71875 86.726562 C 66.789062 86.566406 66.886719 86.425781 67.007812 86.300781 C 67.132812 86.179688 67.273438 86.082031 67.433594 86.011719 C 67.585938 85.921875 67.75 85.863281 67.921875 85.835938 C 68.097656 85.808594 68.269531 85.8125 68.445312 85.847656 C 68.617188 85.882812 68.777344 85.949219 68.925781 86.042969 C 69.074219 86.140625 69.199219 86.257812 69.304688 86.398438 C 78.113281 97.289062 87.328125 106.21875 96.683594 112.941406 C 98.109375 113.972656 99.621094 114.855469 101.222656 115.585938 C 102.824219 116.320312 104.480469 116.886719 106.195312 117.292969 C 107.90625 117.699219 109.644531 117.933594 111.402344 117.996094 C 113.164062 118.0625 114.910156 117.953125 116.648438 117.671875 C 141.472656 113.71875 202.644531 107.964844 234.5 139.816406 C 266.351562 171.671875 260.597656 232.84375 256.644531 257.667969 C 256.363281 259.40625 256.253906 261.152344 256.320312 262.910156 C 256.382812 264.671875 256.617188 266.40625 257.023438 268.117188 C 257.429688 269.832031 257.996094 271.488281 258.730469 273.089844 C 259.460938 274.6875 260.34375 276.203125 261.375 277.628906 C 268.097656 286.984375 277.027344 296.195312 287.914062 305.003906 C 288.144531 305.195312 288.304688 305.433594 288.398438 305.71875 C 288.488281 306.003906 288.496094 306.292969 288.417969 306.582031 C 288.339844 306.871094 288.191406 307.113281 287.96875 307.316406 C 287.746094 307.515625 287.488281 307.640625 287.195312 307.691406 L 286.453125 307.589844 C 266.101562 301.832031 251.363281 290.171875 242.578125 281.394531 Z M 242.578125 281.394531 " fill-opacity="1" fill-rule="nonzero"/></g><g clip-path="url(#164c63b41a)"><path fill="#ffffff" d="M 317.617188 57.367188 C 317.382812 57.132812 317.121094 56.945312 316.820312 56.804688 C 316.523438 56.664062 316.210938 56.578125 315.882812 56.546875 C 315.554688 56.515625 315.230469 56.539062 314.914062 56.621094 C 314.59375 56.703125 314.296875 56.835938 314.023438 57.019531 C 313.65625 57.265625 276.992188 81.714844 241.707031 83.113281 C 241.164062 83.136719 240.664062 83.300781 240.214844 83.609375 C 239.765625 83.917969 239.429688 84.324219 239.214844 84.824219 C 238.996094 85.324219 238.929688 85.84375 239.011719 86.386719 C 239.097656 86.925781 239.316406 87.402344 239.675781 87.8125 C 244.460938 93.144531 249.800781 97.84375 255.699219 101.90625 C 256.320312 102.320312 256.667969 102.898438 256.742188 103.636719 C 256.8125 104.347656 256.597656 104.953125 256.089844 105.453125 L 238.582031 122.953125 C 238.308594 123.21875 238.097656 123.523438 237.945312 123.875 C 237.796875 124.222656 237.71875 124.589844 237.714844 124.96875 C 237.710938 125.351562 237.78125 125.71875 237.925781 126.070312 C 238.070312 126.421875 238.277344 126.734375 238.546875 127 C 238.816406 127.269531 239.125 127.476562 239.480469 127.621094 C 239.832031 127.765625 240.199219 127.835938 240.578125 127.832031 C 240.960938 127.828125 241.324219 127.753906 241.675781 127.601562 C 242.023438 127.453125 242.332031 127.242188 242.59375 126.96875 L 260.101562 109.464844 C 260.941406 108.625 261.558594 107.648438 261.960938 106.53125 C 262.363281 105.417969 262.503906 104.269531 262.386719 103.085938 C 262.273438 101.890625 261.90625 100.777344 261.289062 99.742188 C 260.671875 98.710938 259.863281 97.863281 258.863281 97.191406 C 255.015625 94.550781 251.414062 91.597656 248.070312 88.339844 C 271.777344 85.835938 294.625 74.824219 307.21875 67.761719 C 300.160156 80.359375 289.148438 103.207031 286.644531 126.917969 C 283.386719 123.570312 280.433594 119.96875 277.789062 116.113281 C 277.121094 115.117188 276.269531 114.308594 275.238281 113.691406 C 274.207031 113.074219 273.089844 112.707031 271.894531 112.589844 C 270.714844 112.476562 269.566406 112.621094 268.449219 113.019531 C 267.332031 113.421875 266.355469 114.039062 265.519531 114.878906 L 248.558594 131.84375 C 248.296875 132.109375 248.101562 132.417969 247.960938 132.761719 C 247.824219 133.109375 247.757812 133.46875 247.761719 133.839844 C 247.761719 134.210938 247.835938 134.570312 247.980469 134.914062 C 248.125 135.257812 248.328125 135.558594 248.589844 135.824219 C 248.855469 136.085938 249.15625 136.289062 249.5 136.433594 C 249.84375 136.578125 250.203125 136.652344 250.574219 136.65625 C 250.945312 136.65625 251.304688 136.589844 251.652344 136.453125 C 251.996094 136.3125 252.304688 136.117188 252.570312 135.855469 L 269.53125 118.894531 C 270.03125 118.386719 270.636719 118.171875 271.347656 118.242188 C 272.089844 118.316406 272.664062 118.664062 273.078125 119.285156 C 277.140625 125.183594 281.839844 130.527344 287.171875 135.308594 C 287.585938 135.667969 288.058594 135.886719 288.597656 135.96875 C 289.136719 136.050781 289.65625 135.984375 290.15625 135.769531 C 290.660156 135.550781 291.0625 135.21875 291.371094 134.769531 C 291.679688 134.320312 291.84375 133.820312 291.867188 133.277344 C 293.265625 97.988281 317.714844 61.324219 317.960938 60.960938 C 318.144531 60.6875 318.277344 60.390625 318.359375 60.070312 C 318.441406 59.753906 318.464844 59.429688 318.433594 59.101562 C 318.402344 58.773438 318.316406 58.460938 318.175781 58.164062 C 318.035156 57.863281 317.851562 57.597656 317.617188 57.367188 Z M 317.617188 57.367188 " fill-opacity="1" fill-rule="nonzero"/></g></svg>